<svg width="28" height="28" viewBox="0 0 28 28" fill="none" xmlns="http://www.w3.org/2000/svg">
<path d="M9.66663 22.375C11.25 23.2083 12.75 23.625 14.1666 23.625C15.5833 23.625 17.0625 23.2083 18.6041 22.375C20.1875 21.5417 21.375 20.5208 22.1666 19.3125C22.125 18.1458 21.1875 17.1667 19.3541 16.375C17.5208 15.5833 15.7916 15.1875 14.1666 15.1875C12.5416 15.1875 10.8125 15.5833 8.97913 16.375C7.14579 17.125 6.20829 18.1042 6.16663 19.3125C6.95829 20.5208 8.12496 21.5417 9.66663 22.375ZM16.9791 5.875C16.1875 5.08333 15.25 4.6875 14.1666 4.6875C13.0833 4.6875 12.1458 5.08333 11.3541 5.875C10.5625 6.66667 10.1666 7.60417 10.1666 8.6875C10.1666 9.77083 10.5625 10.7083 11.3541 11.5C12.1458 12.2917 13.0833 12.6875 14.1666 12.6875C15.25 12.6875 16.1875 12.2917 16.9791 11.5C17.7708 10.7083 18.1666 9.77083 18.1666 8.6875C18.1666 7.60417 17.7708 6.66667 16.9791 5.875ZM4.72913 4.625C7.35413 2 10.5 0.6875 14.1666 0.6875C17.8333 0.6875 20.9583 2 23.5416 4.625C26.1666 7.20833 27.4791 10.3333 27.4791 14C27.4791 17.6667 26.1666 20.8125 23.5416 23.4375C20.9583 26.0208 17.8333 27.3125 14.1666 27.3125C10.5 27.3125 7.35413 26.0208 4.72913 23.4375C2.14579 20.8125 0.854126 17.6667 0.854126 14C0.854126 10.3333 2.14579 7.20833 4.72913 4.625Z" fill="#888888"/>
</svg>
