<svg width="28" height="28" viewBox="0 0 28 28" fill="none" xmlns="http://www.w3.org/2000/svg">
<path d="M15.1458 10V7.3125H12.5208V10H15.1458ZM15.1458 20.6875V12.6875H12.5208V20.6875H15.1458ZM4.39575 4.625C7.02075 2 10.1666 0.6875 13.8333 0.6875C17.4999 0.6875 20.6249 2 23.2083 4.625C25.8333 7.20833 27.1458 10.3333 27.1458 14C27.1458 17.6667 25.8333 20.8125 23.2083 23.4375C20.6249 26.0208 17.4999 27.3125 13.8333 27.3125C10.1666 27.3125 7.02075 26.0208 4.39575 23.4375C1.81242 20.8125 0.520752 17.6667 0.520752 14C0.520752 10.3333 1.81242 7.20833 4.39575 4.625Z" fill="#888888"/>
</svg>
